PathFileType	4	(X/Y/Z)	C:\Users\WrightLab\Desktop\Jo\P1_boxCal32.trc
DataRate	CameraRate	NumFrames	NumMarkers	Units	OrigDataRate	OrigDataStartFrame	OrigNumFrames
100.00	100.00	       10	19	mm	100.00	369	       737
Frame#	Time	Headset_Front			Headset_Back			Headset_Left			Headset_Right			Left_Shoulder			Right_Shoulder			Sternum			C7			Left Elbow			Right Elbow			Left Wrist			Right Wrist			Left ASIS			Right ASIS			S2			Left Knee			Right Knee			Left Ankle			Right Ankle			
		X1	Y1	Z1	X2	Y2	Z2	X3	Y3	Z3	X4	Y4	Z4	X5	Y5	Z5	X6	Y6	Z6	X7	Y7	Z7	X8	Y8	Z8	X9	Y9	Z9	X10	Y10	Z10	X11	Y11	Z11	X12	Y12	Z12	X13	Y13	Z13	X14	Y14	Z14	X15	Y15	Z15	X16	Y16	Z16	X17	Y17	Z17	X18	Y18	Z18	X19	Y19	Z19	

369	3.680	-350.25800	1288.47375	-68.58447	-506.13126	1497.75696	93.77846	-530.18085	1387.97168	-34.40061	-324.45560	1370.05383	55.63092	-628.81958	1258.24475	-5.11313	-356.49179	1262.06226	246.94719				-587.14801	1298.50720	202.61371	-569.59265	954.38757	-86.99480	-355.55994	1016.89880	400.82080	-388.79544	840.27808	-173.36685	-279.81119	766.94196	336.94101	-556.19165	861.82178	34.13836	-388.39246	846.07843	147.07381	-666.22620	930.36304	332.51990	-798.09265	463.57703	145.79491	-419.47244	458.48187	195.00154	-919.41663	188.54042	358.30548				
370	3.690	-347.87784	1286.87415	-71.13295	-503.21365	1497.04895	89.87592	-527.96161	1386.62537	-38.20912	-322.16187	1368.85693	52.06920	-626.35107	1257.80920	-8.53257	-354.22260	1261.69104	243.15004				-584.95435	1298.46021	199.30525	-567.12518	954.10913	-90.80553	-353.07376	1016.44360	397.49799	-385.35440	840.52008	-176.04831	-277.16199	766.79895	330.30087	-555.03345	862.49866	29.93547	-386.57281	845.01080	145.56219	-664.65381	930.95978	329.71432	-797.09351	463.99597	143.35768	-417.81412	457.76019	193.81743	-918.09882	186.60107	353.15131				
371	3.700	-345.83823	1286.33398	-73.79997	-501.17783	1497.01636	84.92853	-525.64459	1386.62805	-42.05907	-319.78412	1368.15723	49.06716	-624.33307	1257.88928	-11.85738	-351.85001	1262.01685	240.02353	-416.12564	1124.38330	68.22289	-582.84729	1298.44250	195.97272	-564.15643	954.32745	-94.33827	-351.43823	1016.34857	393.46390	-382.45135	839.94348	-178.42966	-274.84705	767.13690	325.46036	-552.89691	862.03387	29.00882	-384.99765	845.34924	142.58217	-662.97003	931.41162	326.89490	-796.45587	464.58475	139.84604	-416.96634	457.04636	192.56912	-917.20453	185.21143	347.56308				
372	3.710	-343.81799	1284.50671	-78.17508	-498.75299	1496.82520	80.58812	-523.69250	1385.11230	-45.47196	-317.50192	1367.58289	45.70425	-622.01031	1257.46851	-15.34923	-349.90875	1261.64905	236.73981				-580.92310	1298.87610	192.71693	-561.21082	954.64288	-96.63177	-348.86340	1015.84021	389.97049	-379.82477	840.18958	-180.02124	-273.04489	767.48883	319.62915	-552.16846	862.84839	24.00385	-383.55505	845.80402	140.03297	-661.29828	931.52039	324.11670	-795.15472	465.38382	136.55576	-416.38443	456.44714	190.47285	-915.27063	183.11508	341.78271				
373	3.720	-341.70084	1283.35669	-81.10356	-496.39871	1496.79041	76.66001	-521.68329	1385.04382	-48.47118	-315.79828	1367.14282	42.07298	-620.86237	1258.27490	-19.31588	-347.75104	1261.31372	233.27861				-579.67090	1299.07117	189.50612	-558.92603	954.20862	-99.41363	-346.88159	1015.50531	386.88983	-377.06082	839.65283	-181.88165	-270.90613	767.19501	314.47073	-550.87799	862.95135	21.21293	-382.45746	845.32336	138.99347	-659.40112	931.49988	321.30814	-794.20148	465.49323	134.12888	-416.14536	455.80957	189.74681	-914.37024	181.90540	335.59476				
374	3.730	-340.06635	1282.22998	-84.26668	-494.41315	1496.55823	72.94897	-519.46234	1384.06128	-52.50216	-314.03516	1366.06152	38.45819	-618.34796	1257.22119	-21.37613	-346.15604	1261.69177	230.74834	-411.06940	1124.26685	58.87671	-577.69861	1299.20374	186.59354	-557.03015	954.20148	-101.90786	-344.46240	1015.17981	383.41537	-376.10870	841.00568	-186.21333	-269.25024	767.43933	309.63629	-549.51721	862.76190	19.07613	-380.71442	845.75055	135.77789	-658.14209	931.79901	319.13284	-793.32452	465.79486	130.29691	-415.36588	455.94833	187.71471	-912.26282	179.70979	328.93564				
375	3.740	-338.68793	1280.70947	-86.57664	-492.82730	1496.81848	68.22668	-518.12061	1383.88672	-56.14756	-311.62057	1365.85571	35.35580	-617.25641	1257.31213	-24.71597	-344.38293	1261.94336	227.73193	-409.57895	1124.24585	57.75493	-575.57202	1299.39001	183.63557	-555.46991	954.17017	-104.66228	-342.80157	1015.51624	380.67178	-373.17117	840.55127	-188.76924	-267.97830	767.03632	304.75220	-548.28491	863.12640	16.02964	-379.78833	845.72125	134.05272	-656.76624	932.17865	316.52542	-792.81854	466.42993	127.01930	-414.50671	455.60114	186.68318	-910.20538	177.49307	322.28384				
376	3.750	-336.89310	1279.45874	-89.55686	-490.59326	1496.67908	64.77794	-516.09308	1382.95471	-59.83460	-310.50507	1364.88525	32.24945	-615.64453	1256.70923	-27.03821	-342.94278	1261.78259	225.04742	-407.92502	1123.33118	54.35971	-574.13373	1299.53040	180.63699	-553.95856	953.93073	-107.22918	-341.40427	1015.28973	377.09097	-370.99765	840.00085	-190.12706	-266.66101	766.73419	300.94626	-547.70728	863.46198	14.06489	-381.48141	843.67731	130.73553	-655.58643	932.57959	314.20447	-791.38397	466.04153	123.77563	-413.86859	455.53662	185.63324	-908.74170	175.24181	316.08841				
377	3.760	-335.55136	1278.18127	-92.55856	-489.01688	1496.66052	60.61641	-514.36316	1382.22803	-62.49537	-308.60675	1364.10986	28.75869	-614.27972	1256.93042	-29.88335	-341.29590	1261.79004	222.16328	-406.70779	1123.22217	51.59142	-572.63501	1299.65112	178.04539	-552.76843	953.89948	-109.62404	-339.76434	1014.88190	374.76770	-369.29675	839.86279	-191.78984	-265.67044	766.89612	296.28635	-546.43671	863.27002	11.89083	-379.78967	842.73859	128.41467	-654.34747	932.44489	312.10391	-790.31866	466.19247	120.85864	-413.55658	455.50378	184.75319	-906.84265	172.93861	309.80734				
378	3.770	-334.11041	1277.15259	-95.28194	-487.13855	1496.38672	56.76501	-513.67474	1382.17310	-66.37077	-307.43414	1363.68481	26.14768	-613.33771	1256.45813	-32.58786	-339.99347	1261.93640	219.75150	-405.61298	1124.01611	49.22978	-571.07031	1300.12805	175.34290	-551.81750	953.81512	-111.49381	-338.15833	1015.16443	372.06482	-367.61148	840.14587	-194.27602	-264.69836	767.40948	293.26614	-545.44855	863.13074	9.63489	-379.41028	842.56329	125.86390	-653.32080	933.10413	310.12357	-788.72577	466.34070	117.23315	-413.09854	455.25793	182.46762	-905.01526	170.43327	303.98154				
